# xmcd
#
# Track frame offsets:
#	150
#	20557
#	38166
#	54904
#	70478
#	90117
#	108805
#	127203
#	145059
#	161537
#	178719
#	195425
#	217041
#	232862
#	251523
#	279627
#
# Disc length: 3734 seconds
#
# Revision: 2
# Processed by: cddbd v1.5.2PL0 Copyright (c) Steve Scherf et al.
# Submitted via: audiograbber 1.83.01
#
DISCID=d90e9410
DTITLE=ASK20052 - All Star Karaoke ASK20052 Gal Country vol 2
DYEAR=1900
DGENRE=Karaoke
TTITLE0=Willie Nelson and Lee Ann Womack - Mendocino County Line
TTITLE1=Chely Wright - Never Love You Enough
TTITLE2=Terri Clark - No Fear
TTITLE3=Kasey Chambers - Not Pretty Enough
TTITLE4=Chely Wright - One Night In Las Vegas
TTITLE5=Sara Evans - Perfect
TTITLE6=Jamie O'Neal - Shiver
TTITLE7=Deanna Carter - Strawberry Wine
TTITLE8=Lee Ann Womack - Stronger Than I Am
TTITLE9=Shania Twain - Heart Is Blind, The
TTITLE10=Pam Tillis - Thunder and Roses
TTITLE11=Dixie Chicks - Travelin' Soldier
TTITLE12=Martina McBride - When God Fearin' Women Get The Blues
TTITLE13=Kellie Coffey - When You Lie Next To Me
TTITLE14=Sara Evans - Why Should I Care
TTITLE15=Data Track - Data Track
EXTD=
EXTT0=
EXTT1=
EXTT2=
EXTT3=
EXTT4=
EXTT5=
EXTT6=
EXTT7=
EXTT8=
EXTT9=
EXTT10=
EXTT11=
EXTT12=
EXTT13=
EXTT14=
EXTT15=
PLAYORDER=
